<?xml version="1.0" encoding="UTF-8" standalone="no"?>
<!DOCTYPE svg PUBLIC "-//W3C//DTD SVG 1.1//EN" "http://www.w3.org/Graphics/SVG/1.1/DTD/svg11.dtd">
<svg width="100%" height="100%" viewBox="0 0 600 373" version="1.1" xmlns="http://www.w3.org/2000/svg" xmlns:xlink="http://www.w3.org/1999/xlink" xml:space="preserve" xmlns:serif="http://www.serif.com/" style="fill-rule:evenodd;clip-rule:evenodd;stroke-linejoin:round;stroke-miterlimit:2;">
    <g transform="matrix(1.81751,0,0,1.81751,250.069,272.59)">
        <path d="M0,0.336C0.07,0.314 0.131,0.278 0.186,0.238C-0.092,0.16 -0.377,0.082 -0.694,0L0,0.336Z" style="fill:white;fill-rule:nonzero;"/>
    </g>
    <g transform="matrix(1.81751,0,0,1.81751,439.333,138.074)">
        <path d="M0,2.522C-0.995,-8.197 -1.82,-17.677 -4.848,-28.199C-6.578,-31.447 -8.971,-35.531 -10.497,-38.528C-17.925,-50.284 -27.65,-61.863 -41.205,-67.76C-40.655,-67.143 -41.606,-67.063 -42.334,-67.251L-42.379,-67.579L-43.664,-67.501C-44.657,-67.908 -43.918,-68.443 -43.048,-68.142C-48.244,-70.668 -53.259,-72.041 -58.647,-73.522C-59.213,-72.709 -61.485,-74.202 -61.879,-73.196C-62.1,-73.414 -61.854,-73.424 -61.661,-73.589C-65.582,-73.677 -65.774,-73.756 -69.17,-75.36C-84.285,-77.454 -99.272,-73.99 -112.654,-67.327C-126.089,-60.144 -136.652,-48.866 -143.964,-35.449C-143.898,-33.299 -145.042,-31.194 -145.541,-28.94C-146.251,-27.386 -146.917,-25.808 -147.523,-24.2C-147.889,-23.693 -148.319,-23.103 -148.834,-22.251C-148.456,-22.096 -148.807,-21.516 -148.534,-21.319C-148.697,-20.826 -148.871,-20.337 -149.024,-19.84C-149.466,-19.477 -149.894,-19.052 -149.879,-18.344C-150.174,-18.374 -149.372,-18.236 -149.712,-18.008C-149.708,-17.791 -149.706,-17.611 -149.705,-17.443C-149.805,-17.078 -149.917,-16.718 -150.012,-16.35C-150.327,-16.501 -150.931,-16.767 -152.025,-14.322C-153.115,-7.516 -152.942,-0.541 -153.075,5.958C-153.136,5.554 -152.449,5.341 -152.404,5.994C-153.783,6.695 -151.908,8.16 -152.409,9.334C-152.706,9.272 -152.825,8.73 -152.966,8.439C-153.474,11.483 -151.97,13.807 -152.249,16.705C-151.282,19.231 -151.481,22.461 -150.402,24.034C-151.038,23.772 -150.534,25.325 -150.588,25.951C-148.311,27.235 -149.37,31.121 -147.389,32.983L-147.694,33.024C-144.671,39.668 -140.731,46.751 -135.268,52.117C-132.397,55.221 -129.986,59.71 -125.875,62.254C-125.047,62.612 -125.359,61.907 -124.707,62.21C-123.789,62.95 -125.043,62.608 -124.799,63.041C-122.479,63.826 -120.679,66.535 -118.087,67.949C-117.65,67.9 -116.916,68.257 -116.939,67.777C-114.82,70.566 -110.123,71.151 -107.493,73.297C-107.955,71.501 -105.431,73.398 -104.196,73.401C-103.625,73.681 -103.677,74.054 -103.948,74.25C-101.574,74.915 -100.414,75.469 -97.671,76.572C-96.3,76.756 -95.751,76.082 -94.232,76.704C-93.482,77.991 -90.938,77.555 -89.418,78.095C-89.509,77.758 -89.279,77.494 -88.88,77.325C-88.006,77.467 -87.125,77.586 -86.24,77.7L-86.714,78.543C-81.657,78.574 -74.264,79.976 -68.47,77.918L-67.957,78.563C-63.364,77.293 -58.62,76.793 -54.384,75.03C-51.606,74.181 -48.901,73.17 -46.271,72.022C-45.997,71.914 -45.742,71.8 -45.516,71.681C-19.133,59.817 -0.754,33.325 -0.75,2.522C-0.75,2.328 -0.764,2.136 -0.765,1.943C-0.319,2.343 0,2.521 0,2.522" style="fill:white;fill-rule:nonzero;"/>
    </g>
    <g transform="matrix(1.81751,0,0,1.81751,162.619,167.257)">
        <path d="M0,0.669L0,0.648C-0.083,0.43 -0.16,0.207 -0.263,0C-0.25,0.259 -0.169,0.397 0,0.669" style="fill:white;fill-rule:nonzero;"/>
    </g>
    <g transform="matrix(1.81751,0,0,1.81751,276.338,109.97)">
        <path d="M0,-12.472L-0.498,-12.51C0.113,-14.037 -0.616,-15.809 -0.242,-17.334L-21.611,4.035C-19.172,4.289 -16.743,3.516 -14.619,4.228C-9.868,4.862 -5.391,4.153 -0.656,4.091C-0.673,4.049 -0.686,4.007 -0.704,3.966C-0.355,3.644 -0.549,2.396 -0.22,1.986C0.408,-2.271 -0.256,-7.141 -0.366,-11.872C-0.279,-11.998 0.029,-11.964 0,-12.472" style="fill:rgb(0,165,228);fill-rule:nonzero;"/>
    </g>
    <g transform="matrix(1.81751,0,0,1.81751,350.014,203.836)">
        <path d="M0,-20.928C-4.751,-21.562 -9.229,-20.853 -13.964,-20.79C-13.946,-20.749 -13.935,-20.707 -13.916,-20.666C-14.264,-20.345 -14.07,-19.096 -14.399,-18.685C-15.027,-14.429 -14.364,-9.558 -14.253,-4.827C-14.341,-4.702 -14.649,-4.737 -14.62,-4.228L-14.122,-4.191C-14.733,-2.663 -14.005,-0.891 -14.378,0.634L6.991,-20.735C4.552,-20.989 2.124,-20.216 0,-20.928" style="fill:rgb(0,165,228);fill-rule:nonzero;"/>
    </g>
    <g transform="matrix(1.81751,0,0,1.81751,274.893,202.089)">
        <path d="M0,-19.795C-0.322,-20.143 -1.57,-19.949 -1.98,-20.278C-6.237,-20.906 -11.107,-20.243 -15.838,-20.132C-15.964,-20.219 -15.93,-20.528 -16.438,-20.499L-16.475,-20.001C-18.003,-20.612 -19.774,-19.883 -21.298,-20.256L0.069,1.111C0.324,-1.328 -0.45,-3.756 0.263,-5.88C0.896,-10.631 0.188,-15.108 0.125,-19.843C0.083,-19.826 0.042,-19.813 0,-19.795" style="fill:rgb(0,165,228);fill-rule:nonzero;"/>
    </g>
    <g transform="matrix(1.81751,0,0,1.81751,324.887,81.364)">
        <path d="M0,19.796C0.322,20.144 1.57,19.95 1.981,20.279C6.237,20.907 11.107,20.244 15.839,20.133C15.965,20.22 15.93,20.529 16.438,20.5L16.476,20.002C18.004,20.613 19.775,19.883 21.301,20.257L-0.068,-1.111C-0.322,1.329 0.45,3.756 -0.262,5.88C-0.896,10.632 -0.187,15.108 -0.123,19.843C-0.082,19.826 -0.041,19.814 0,19.796" style="fill:rgb(0,165,228);fill-rule:nonzero;"/>
    </g>
    <g transform="matrix(1.81751,0,0,1.81751,264.419,273.285)">
        <path d="M0,-0.065C0.189,-0.004 0.29,0 0,-0.065" style="fill:rgb(0,61,126);fill-rule:nonzero;"/>
    </g>
    <g transform="matrix(1.81751,0,0,1.81751,201.331,48.2696)">
        <path d="M0,0.447L0.101,0.334L0.201,0L0,0.447Z" style="fill:rgb(0,61,126);fill-rule:nonzero;"/>
    </g>
    <g transform="matrix(1.81751,0,0,1.81751,237.457,22.3263)">
        <path d="M0,0.123L0.143,0.072C0.115,0.045 0.125,0 0,0.123" style="fill:rgb(0,61,126);fill-rule:nonzero;"/>
    </g>
    <g transform="matrix(1.81751,0,0,1.81751,165.09,143.468)">
        <path d="M0,0.417L-0.05,0C-0.043,0.214 -0.024,0.332 0,0.417" style="fill:rgb(0,61,126);fill-rule:nonzero;"/>
    </g>
    <g transform="matrix(1.81751,0,0,1.81751,345.135,269.719)">
        <path d="M0,-0.027L-0.1,0.015L0.161,-0.042L0,-0.027Z" style="fill:rgb(0,61,126);fill-rule:nonzero;"/>
    </g>
    <g transform="matrix(1.81751,0,0,1.81751,344.026,270.157)">
        <path d="M0,0.037C0.024,0.037 0.073,0.029 0.179,0C0.137,0.004 0.073,0.018 0,0.037" style="fill:rgb(0,61,126);fill-rule:nonzero;"/>
    </g>
    <g transform="matrix(1.81751,0,0,1.81751,344.026,270.442)">
        <path d="M0,-0.12C-0.098,-0.119 0.336,-0.308 0.511,-0.383C-0.079,-0.254 -0.643,-0.054 -1.201,0.19C-1.174,0.263 -0.402,-0.016 0,-0.12" style="fill:rgb(0,61,126);fill-rule:nonzero;"/>
    </g>
    <g transform="matrix(1.81751,0,0,1.81751,173.398,139.923)">
        <path d="M0,-0.348L0.004,0C0.016,-0.18 0.011,-0.279 0,-0.348" style="fill:rgb(0,61,126);fill-rule:nonzero;"/>
    </g>
    <g transform="matrix(1.81751,0,0,1.81751,428.336,182.947)">
        <path d="M0,-0.176L0.092,0C0.076,-0.135 0.042,-0.176 0,-0.176" style="fill:rgb(0,61,126);fill-rule:nonzero;"/>
    </g>
    <g transform="matrix(1.81751,0,0,1.81751,276.641,9.61898)">
        <path d="M0,-0.092L0.139,0L0.203,-0.009L0,-0.092Z" style="fill:rgb(0,61,126);fill-rule:nonzero;"/>
    </g>
    <g transform="matrix(1.81751,0,0,1.81751,428.757,115.669)">
        <path d="M0,0.342L-0.209,-0.069C-0.145,0.157 -0.078,0.31 -0.048,0.411L0,0.342Z" style="fill:rgb(0,61,126);fill-rule:nonzero;"/>
    </g>
    <g transform="matrix(1.78222,-0.356443,-0.356443,-1.78222,332.858,11.9353)">
        <path d="M-0.128,-0.336L-0.011,-0.336C-0.476,-0.079 -1.708,0.6 -3.363,1.286L-3.534,1.156C-2.363,0.749 -1.267,0.157 -0.128,-0.336" style="fill:rgb(0,61,126);fill-rule:nonzero;"/>
    </g>
    <g transform="matrix(1.81751,0,0,1.81751,432.019,144.05)">
        <path d="M0,-0.766L-1.671,1.825C-2.197,4.442 -2.72,7.012 -3.629,9.496C-4.464,16.454 -6.503,23.267 -9.525,29.609C-11.984,34.667 -15.386,39.172 -18.9,43.482C-27.569,53.95 -39.23,61.866 -52.239,65.91L-54.974,66.969C-62.83,68.5 -73.192,69.91 -81.765,68.257L-81.982,68.526C-84.401,68.174 -84.207,68.017 -84.793,67.876C-107.345,64.356 -127.599,47.979 -135.635,29.1C-136.498,27.324 -138.543,21.705 -138.895,20.202C-141.099,13.97 -142.378,6.964 -142.393,0.305L-142.347,0.556C-142.462,-0.486 -142.428,-1.528 -142.38,-2.572C-142.348,-2.704 -142.312,-2.719 -142.294,-2.619C-142.525,-6.169 -141.637,-11.704 -140.594,-15.884L-140.625,-15.633C-135.254,-40.16 -117.303,-60.181 -93.289,-67.429C-82.157,-70.237 -68.246,-72.066 -55.385,-68.121C-54.261,-67.676 -47.092,-65.923 -40.646,-62.411C-34.142,-59.07 -28.34,-54.546 -27.443,-53.778C-28.104,-54.605 -28.896,-55.285 -29.653,-56.012C-21.742,-49.769 -18.952,-45.835 -13.81,-38.967L-14.123,-39.332C-13.871,-38.101 -11.649,-38.359 -7.258,-25.16L-7.291,-25.147C-7.121,-24.7 -7.054,-24.727 -6.816,-23.797L-7.428,-26.116C-6.852,-24.805 -6.256,-23.683 -5.571,-21.89C-5.458,-21.498 -5.531,-21.33 -5.566,-21.279L-4.341,-16.748L-4.21,-15.306C-3.776,-13.939 -3.458,-14.657 -3.128,-10.811C-3.008,-12.297 -2.635,-8.948 -2.533,-9.44C-2.546,-9.242 -2.541,-8.797 -2.546,-8.439C-2.298,-6.162 -2.052,-1.839 -1.798,-0.766C-1.802,-0.744 -1.417,-9.832 -1.723,-12.329C-1.318,-9.059 -1.55,-11.474 -1.534,-12.137L-1.651,-12.34C-1.867,-14.307 -1.653,-14.349 -1.746,-15.342L-1.795,-15.273L-1.748,-15.154C-1.771,-15.054 -1.806,-15.103 -1.843,-15.204C-1.883,-15.17 -1.923,-15.255 -2.052,-15.779L-2.004,-15.683C-2.241,-16.479 -2.563,-17.87 -2.704,-18.476L-2.531,-18.533C-3.02,-19.907 -4.936,-28.158 -5.842,-29.978C-6.535,-31.86 -7.765,-34.034 -8.895,-36.256C-10.913,-39.693 -9.703,-38.095 -10.613,-39.894C-11.823,-42.103 -10.526,-39.346 -11.061,-40.201C-11.495,-41.11 -11.957,-42.007 -12.519,-42.839C-11.453,-41.45 -11.931,-42.271 -12.065,-42.569C-13.624,-44.65 -15.749,-48.246 -16.671,-48.521C-18.909,-51.243 -18.815,-51.353 -19.822,-52.487C-19.526,-52.064 -18.893,-51.278 -18.94,-51.222C-19.776,-52.378 -19.423,-51.694 -19.06,-51.243C-20.465,-52.841 -26.782,-59.405 -27.512,-59.236L-27.468,-59.293C-28.048,-59.359 -27.582,-58.652 -28.879,-59.418L-29.601,-60.123L-30.879,-60.92C-31.632,-61.602 -31.191,-61.37 -31.171,-61.4C-33.327,-62.575 -36.104,-64.609 -38.751,-65.973C-37.909,-65.311 -37.141,-64.541 -36.394,-63.754C-38.368,-65.29 -42.39,-67.374 -42.91,-67.421L-44.16,-68.308C-48.693,-70.519 -47.532,-69.304 -49.355,-70.137C-50.111,-70.523 -50.868,-70.917 -51.667,-71.19C-50.845,-71.01 -50.061,-70.71 -49.275,-70.415C-51.579,-71.468 -52.593,-71.609 -54.479,-72.361L-54.503,-72.358C-54.371,-72.312 -54.288,-72.276 -54.274,-72.254L-54.618,-72.335C-54.954,-72.258 -56.243,-72.524 -57.973,-72.923C-60.47,-73.285 -62.418,-73.566 -66.4,-74.205L-67.426,-73.955L-70.435,-74.287L-70.428,-74.527C-67.444,-74.534 -61.882,-73.991 -58.108,-73.291L-58.02,-73.388C-60.268,-73.733 -62.836,-74.017 -64.314,-74.265C-64.975,-74.468 -66.631,-74.698 -65.744,-74.826L-66.933,-74.691C-74.517,-75.06 -74.574,-74.969 -82.495,-74.466L-81.796,-74.45C-83.346,-74.143 -84.883,-73.838 -85.35,-73.964C-90.048,-73.188 -94.884,-72.028 -97.879,-71.147L-98.422,-70.647C-99.374,-70.316 -100.963,-70.187 -101.275,-69.651C-101.933,-69.36 -102.547,-68.968 -103.184,-68.631C-104.438,-68.052 -105.127,-67.541 -106.615,-67.003L-106.623,-67L-106.905,-66.901L-106.879,-66.888C-109.73,-65.598 -106.765,-66.743 -109.927,-65.081C-111.011,-64.658 -110.827,-64.115 -112.34,-63.27L-114.054,-62.702C-116.719,-61.005 -116.98,-60.419 -120.526,-57.561C-122.241,-56.2 -123.27,-55.732 -122.389,-56.948C-123.631,-55.316 -122.907,-56.151 -124.754,-54.227C-125.164,-54.06 -124.978,-54.274 -124.637,-54.77C-126.526,-53.306 -125.584,-53.647 -126.824,-52.364C-126.966,-51.781 -127.029,-51.03 -127.401,-50.593L-126.875,-51.039C-127.985,-49.52 -129.425,-48.077 -130.77,-46.369L-130.835,-46.523L-132.164,-44.624L-132.401,-44.617C-133.032,-43.711 -133.724,-42.847 -134.303,-41.908L-134.022,-42.266C-134.413,-41.591 -135.679,-39.378 -136.52,-38.181L-136.581,-38.278C-138.963,-34.896 -140.118,-31.612 -141.784,-27.115L-141.762,-27.786C-142.524,-26.314 -141.616,-27.247 -142.386,-25.447L-142.663,-25.441C-142.905,-23.7 -143.562,-23.388 -143.963,-22.26L-143.5,-22.701L-144.128,-20.552C-144.852,-18.19 -144.92,-19.187 -145.001,-19.586L-145.163,-17.884L-145.536,-17.632C-145.477,-16.352 -145.981,-16.46 -146.1,-14.275C-146.238,-14.118 -146.218,-14.672 -146.377,-13.952L-146.5,-10.356L-146.361,-12.509L-145.97,-12.183C-145.945,-9.931 -146.545,-9.211 -146.515,-7.607C-146.533,-7.975 -146.582,-8.347 -146.554,-8.711C-146.649,-6.112 -146.792,-5.985 -146.978,-4.522C-146.874,-4.974 -146.719,-5.661 -146.715,-4.607C-146.73,-3.835 -146.889,-4.196 -146.974,-3.467C-146.647,-3.279 -146.732,-1.423 -146.75,0.262C-146.792,0.242 -146.834,0.207 -146.865,0.097C-146.797,0.527 -146.711,0.748 -146.744,1.499L-147.088,1.065L-146.709,2.5C-146.749,3.466 -146.444,4.853 -146.667,4.742L-146.76,4.2C-146.763,6.644 -146.336,9.048 -146,11.464L-146.24,11.607C-145.819,12.268 -145.727,15.576 -145.269,15.235C-145.163,16.63 -143.751,20.452 -144.436,19.8C-143.014,24.406 -141.867,26.773 -139.469,32.09C-139.068,34.219 -136.012,39.111 -133.896,42.216C-129.463,48.107 -126.035,51.463 -120.351,56.318C-117.256,59.699 -111.225,62.877 -107.071,65.342L-105.769,65.71C-103.079,67.576 -98.331,68.969 -94.141,70.692C-93.036,70.872 -92.466,70.985 -92.214,71.041C-92.41,70.979 -92.7,70.858 -92.754,70.69C-91.534,71.113 -88.978,71.633 -89.225,71.878L-89.55,71.826C-89.816,72.165 -85.707,72.585 -84.305,72.954L-85.035,72.518L-82.681,72.931C-72.572,73.4 -67.632,74.294 -58.093,71.988C-59.313,72.592 -56.209,71.447 -56.017,71.712C-53.479,71.515 -51.5,70.536 -49.615,69.731C-49.621,69.713 -49.604,69.683 -49.504,69.616L-46.12,68.427C-47.961,69.615 -43.84,67.166 -45.539,68.225C-36.626,65.257 -26.203,58.331 -18.778,50.422L-19.188,50.686C-17.331,48.659 -15.075,46.102 -13.766,44.477C-12.378,42.903 -11.236,40.676 -10.886,39.951C-9.885,37.894 -8.447,36.345 -8.973,37.168C-7.676,35.088 -7.077,32.828 -5.47,29.863C-4.353,29.074 -2.553,21.14 -2.026,21.225L-2.051,21.179C-0.599,17.082 -0.13,13.011 0.701,8.434C0.701,8.434 0.722,8.526 0.729,8.686C0.808,5.507 0.226,2.323 0,-0.766" style="fill:rgb(0,61,126);fill-rule:nonzero;"/>
    </g>
    <g transform="matrix(1.80583,-0.205728,-0.205728,-1.80583,312.532,8.07651)">
        <path d="M-0.001,-0.037L0.238,-0.037C0.265,-0.037 0.288,-0.014 0.288,0.013C0.288,0.041 0.265,0.063 0.238,0.063L-0.001,0.063C-0.028,0.063 -0.051,0.041 -0.051,0.013C-0.051,-0.014 -0.028,-0.037 -0.001,-0.037Z" style="fill:rgb(0,61,126);"/>
    </g>
    <g transform="matrix(1.81751,0,0,1.81751,281.842,276.552)">
        <path d="M0,0.038L-0.053,0.028C-0.256,0.019 -0.448,0.009 -0.656,0L0,0.038Z" style="fill:rgb(0,61,126);fill-rule:nonzero;"/>
    </g>
    <g transform="matrix(1.81751,0,0,1.81751,421.902,105.335)">
        <path d="M0,0.022L-0.026,-0.078C-0.146,-0.037 -0.062,0.1 0,0.022" style="fill:rgb(0,61,126);fill-rule:nonzero;"/>
    </g>
    <g transform="matrix(1.81751,0,0,1.81751,361.289,23.4557)">
        <path d="M0,0.295L0.165,0.378L-0.382,-0.083L0,0.295Z" style="fill:rgb(0,61,126);fill-rule:nonzero;"/>
    </g>
    <g transform="matrix(1.81751,0,0,1.81751,410.09,68.5505)">
        <path d="M0,-1.029C0.373,-0.546 0.676,-0.106 0.896,0.21C0.024,-1.239 -0.125,-1.233 0,-1.029" style="fill:rgb(0,61,126);fill-rule:nonzero;"/>
    </g>
    <g transform="matrix(1.81751,0,0,1.81751,427.115,127.602)">
        <path d="M0,0.6C0.118,1.439 0.144,1.113 0.152,0.611C0.006,-0.244 -0.093,-0.839 -0.093,-0.839L0,0.6Z" style="fill:rgb(0,61,126);fill-rule:nonzero;"/>
    </g>
    <g transform="matrix(1.81751,0,0,1.81751,429.231,121.995)">
        <path d="M0,-0.002L0.142,0.25C0.04,-0.252 0.006,-0.225 0,-0.002" style="fill:rgb(0,61,126);fill-rule:nonzero;"/>
    </g>
    <g transform="matrix(1.81751,0,0,1.81751,181.146,110.188)">
        <path d="M0,-0.263C-0.048,-0.089 -0.064,0 0,-0.263" style="fill:rgb(0,61,126);fill-rule:nonzero;"/>
    </g>
    <g transform="matrix(1.81751,0,0,1.81751,384.76,53.0762)">
        <path d="M0,-0.245L0.102,-0.153L0.346,0L0,-0.245Z" style="fill:rgb(0,61,126);fill-rule:nonzero;"/>
    </g>
    <g transform="matrix(1.81751,0,0,1.81751,409.165,85.4396)">
        <path d="M0,-0.128L0.055,-0.003C0.061,-0.018 0.083,0 0,-0.128" style="fill:rgb(0,61,126);fill-rule:nonzero;"/>
    </g>
    <g transform="matrix(1.81751,0,0,1.81751,298.489,19.1044)">
        <path d="M0,0.029L0.38,0C0.185,0.009 0.078,0.019 0,0.029" style="fill:rgb(0,61,126);fill-rule:nonzero;"/>
    </g>
    <g transform="matrix(1.81751,0,0,1.81751,184.012,183.366)">
        <path d="M0,-0.047L-0.036,-0.139L0.036,0.092L0,-0.047Z" style="fill:rgb(0,61,126);fill-rule:nonzero;"/>
    </g>
    <g transform="matrix(1.81751,0,0,1.81751,183.947,180.291)">
        <path d="M0,1.553L-0.55,0C-0.574,0.011 -0.319,0.711 -0.201,1.072C-0.217,0.997 -0.062,1.393 0,1.553" style="fill:rgb(0,61,126);fill-rule:nonzero;"/>
    </g>
    <g transform="matrix(1.81751,0,0,1.81751,183.582,182.53)">
        <path d="M0,-0.16C0.004,-0.141 0.017,-0.097 0.049,0C0.04,-0.036 0.021,-0.095 0,-0.16" style="fill:rgb(0,61,126);fill-rule:nonzero;"/>
    </g>
    <g transform="matrix(1.81751,0,0,1.81751,303.111,21.9708)">
        <path d="M0,0.008L-0.33,-0.001C-0.159,0.008 -0.065,0.009 0,0.008" style="fill:rgb(0,61,126);fill-rule:nonzero;"/>
    </g>
    <g transform="matrix(1.81751,0,0,1.81751,263.334,259.598)">
        <path d="M0,-0.022L-0.135,-0.019C-0.022,0 0.007,-0.005 0,-0.022" style="fill:rgb(0,61,126);fill-rule:nonzero;"/>
    </g>
    <g transform="matrix(1.81751,0,0,1.81751,421.174,121.142)">
        <path d="M0,-0.174L-0.02,-0.058L-0.011,0L0,-0.174Z" style="fill:rgb(0,61,126);fill-rule:nonzero;"/>
    </g>
    <g transform="matrix(1.81751,0,0,1.81751,324.401,261.402)">
        <path d="M0,0.133L0.395,0C0.184,0.055 0.039,0.107 -0.058,0.122L0,0.133Z" style="fill:rgb(0,61,126);fill-rule:nonzero;"/>
    </g>
    <g transform="matrix(-0.129492,1.81289,1.81289,0.129492,416.845,168.202)">
        <path d="M2.038,1.321L2.136,1.321C1.659,1.404 0.407,1.699 -1.218,1.905L-1.325,1.853C-0.193,1.765 0.916,1.493 2.038,1.321" style="fill:rgb(0,61,126);fill-rule:nonzero;"/>
    </g>
    <g transform="matrix(1.81751,0,0,1.81751,177.953,124.484)">
        <path d="M0,0.591L0.041,0.335C0.051,0.221 0.06,0.115 0.07,0L0,0.591Z" style="fill:rgb(0,61,126);fill-rule:nonzero;"/>
    </g>
    <g transform="matrix(1.81751,0,0,1.81751,368.14,40.2528)">
        <path d="M0,-0.231C0.091,-0.174 0.174,-0.107 0.263,-0.048C0.287,-0.033 0.321,-0.012 0.343,0L0,-0.231Z" style="fill:rgb(0,61,126);fill-rule:nonzero;"/>
    </g>
    <g transform="matrix(1.81386,0.115166,0.115166,-1.81386,312.043,19.6596)">
        <path d="M0,-0.068C0.179,-0.068 0.354,-0.068 0.567,-0.068C0.595,-0.068 0.618,-0.046 0.618,-0.018C0.618,0.009 0.595,0.032 0.568,0.032C0.354,0.032 0.179,0.032 -0.001,0.032C-0.028,0.032 -0.051,0.009 -0.051,-0.018C-0.051,-0.046 -0.028,-0.068 0,-0.068Z" style="fill:rgb(0,61,126);"/>
    </g>
    <g transform="matrix(1.81751,0,0,1.81751,421.998,156.846)">
        <path d="M0,-16.481C-0.238,-17.894 -0.477,-19.297 -0.473,-19.703C-1.203,-23.98 -2.344,-28.364 -3.309,-31.021L-3.61,-31.57C-3.921,-32.434 -4.264,-33.784 -4.54,-34.154C-4.781,-34.762 -5.118,-35.33 -5.402,-35.919C-5.94,-37.054 -6.322,-37.723 -6.896,-39.035L-6.895,-39.035L-6.898,-39.042L-7.006,-39.291L-7.006,-39.273C-8.24,-41.834 -7.009,-39.239 -8.604,-42.072C-9.089,-42.999 -9.307,-42.998 -10.11,-44.36L-10.823,-45.794C-12.478,-48.14 -12.818,-48.514 -15.424,-51.748C-16.729,-53.257 -17.297,-54.054 -16.327,-53.139C-17.647,-54.407 -16.946,-53.7 -18.617,-55.448C-18.831,-55.76 -18.65,-55.577 -18.257,-55.212C-19.655,-56.853 -19.219,-56.126 -20.387,-57.248C-20.802,-57.495 -21.306,-57.747 -21.697,-58.095L-21.255,-57.652C-22.582,-58.731 -23.877,-60.085 -25.492,-61.248L-25.402,-61.241L-27.111,-62.488L-27.181,-62.618C-27.914,-63.141 -28.621,-63.699 -29.37,-64.198C-30.047,-64.606 -31.939,-65.729 -33.021,-66.424L-32.963,-66.428C-36.134,-68.437 -39.009,-69.703 -43.114,-71.244L-42.546,-71.111C-43.93,-71.692 -42.97,-71.152 -44.635,-71.798L-44.69,-71.91C-46.214,-72.316 -46.574,-72.692 -47.62,-72.984L-47.162,-72.75L-49.134,-73.282C-51.303,-73.879 -50.436,-73.764 -50.102,-73.739L-51.609,-74.035L-51.877,-74.207C-52.994,-74.348 -52.945,-74.582 -54.907,-74.792C-55.061,-74.853 -54.564,-74.799 -55.223,-74.916L-58.449,-75.266L-56.509,-75.033L-56.766,-74.925C-58.792,-75.092 -59.478,-75.425 -60.932,-75.465C-60.787,-75.462 -60.644,-75.463 -60.499,-75.462C-62.309,-75.577 -62.54,-75.607 -63.753,-75.71C-63.34,-75.663 -62.71,-75.59 -63.668,-75.62C-64.371,-75.648 -64.047,-75.69 -64.711,-75.74C-64.875,-75.609 -66.569,-75.779 -68.107,-75.713C-68.088,-75.728 -68.056,-75.743 -67.955,-75.757C-68.348,-75.721 -68.55,-75.687 -69.234,-75.675L-68.834,-75.803L-70.146,-75.634C-71.024,-75.62 -72.298,-75.477 -72.188,-75.555L-71.69,-75.602C-73.916,-75.592 -76.102,-75.185 -78.297,-74.866L-78.403,-74.937C-79.041,-74.757 -81.993,-74.397 -81.735,-74.23C-82.971,-73.996 -86.508,-72.944 -85.837,-73.289C-90.003,-71.978 -92.261,-71.195 -97.042,-68.883C-98.869,-68.301 -103.334,-65.6 -106.139,-63.659C-111.541,-59.723 -114.654,-56.675 -119.134,-51.552C-121.937,-48.531 -125.199,-43.313 -127.282,-39.427L-127.737,-38.303C-129.241,-35.767 -130.752,-31.543 -132.122,-27.663C-132.34,-26.676 -132.462,-26.162 -132.518,-25.934C-132.467,-26.114 -132.382,-26.384 -132.312,-26.458C-132.639,-25.33 -133.187,-23.019 -133.242,-23.206L-133.177,-23.497C-133.318,-23.703 -133.947,-20.019 -134.135,-18.718L-133.921,-19.411L-134.233,-17.471C-135.035,-8.132 -135.32,-3.637 -133.567,5.158C-133.921,4.005 -133.178,6.899 -133.203,7.027C-132.753,9.27 -132.193,11.151 -131.526,12.9C-131.52,12.898 -131.505,12.917 -131.459,13.015L-130.349,16.095C-131.171,14.315 -129.413,18.261 -130.158,16.624C-127.264,24.664 -121.133,34.271 -113.839,40.99L-114.131,40.669C-112.271,42.351 -109.993,44.481 -108.437,45.584C-106.935,46.756 -105.077,48.043 -104.416,48.374C-102.599,49.394 -101.053,50.499 -101.813,50.029C-99.935,51.242 -97.982,52.019 -95.216,53.392C-94.408,54.195 -87.309,56.281 -87.297,56.513L-87.262,56.512C-83.466,57.656 -79.811,58.399 -75.588,58.993C-75.588,58.993 -75.669,58.992 -75.813,58.98C-72.941,59.322 -70.028,59.06 -67.168,59.127L-69.6,58.491C-72.064,58.25 -74.514,58.009 -76.91,57.401C-83.507,56.552 -89.954,54.563 -95.938,51.652C-100.77,49.41 -105.104,46.272 -109.267,43.003C-119.203,34.732 -126.697,23.625 -130.506,11.255L-131.306,8.604C-133.123,1.216 -134.039,-8.654 -132.734,-16.79L-132.807,-16.971C-132.463,-19.261 -132.426,-19.096 -132.323,-19.658C-128.907,-41.098 -113.26,-60.055 -95.496,-67.87C-93.86,-68.796 -88.498,-70.678 -87.108,-71.13C-81.117,-73.013 -74.499,-74.219 -68.184,-74.258L-68.422,-74.235C-67.435,-74.33 -66.446,-74.288 -65.458,-74.231C-65.332,-74.216 -65.316,-74.204 -65.412,-74.201C-62.054,-74.257 -56.805,-73.578 -52.814,-72.651L-53.049,-72.7C-29.683,-67.579 -10.994,-50.373 -3.901,-27.721C-0.936,-17.189 0.39,-3.957 -3.11,8.285C-3.442,9.375 -5.107,16.212 -8.471,22.341C-11.672,28.528 -16.022,34.011 -16.783,34.834C-16.433,34.507 -16.116,34.151 -15.811,33.787C-21.119,40.202 -24.639,42.986 -30.665,47.305C-31.802,47.617 -31.839,49.267 -44.008,53.953L-44.012,53.941C-44.438,54.1 -44.427,54.121 -45.29,54.403L-43.138,53.694C-44.401,54.188 -45.498,54.652 -47.198,55.284C-47.561,55.413 -47.706,55.389 -47.745,55.39L-52.044,56.516L-53.379,56.778C-54.693,57.113 -54.065,57.117 -57.673,57.595C-56.3,57.501 -59.448,57.936 -58.997,57.926C-59.181,57.939 -59.596,57.981 -59.93,58.013C-62.08,58.225 -66.16,58.397 -67.168,58.528C-67.174,58.526 -60.874,58.466 -57.672,58.131C-58.549,58.262 -57.067,58.07 -56.59,58.028L-56.393,57.97C-54.569,57.72 -54.555,57.792 -53.641,57.67L-53.698,57.66L-53.812,57.687C-53.9,57.687 -53.852,57.671 -53.756,57.649C-53.78,57.639 -53.697,57.623 -53.212,57.496L-53.304,57.527C-52.561,57.325 -51.272,57.006 -50.711,56.866L-50.686,56.922C-49.344,56.663 -41.854,54.394 -40.194,53.559C-38.515,52.795 -36.436,51.812 -34.414,50.709C-31.261,48.816 -32.797,49.829 -31.189,48.914C-29.194,47.746 -31.627,49.098 -30.837,48.612C-30.025,48.171 -29.228,47.705 -28.491,47.148C-29.775,48.117 -29.056,47.625 -28.807,47.468C-26.904,46.019 -23.731,43.927 -23.345,43.24C-20.914,41.11 -20.874,41.138 -19.843,40.209C-20.202,40.506 -20.898,41.112 -20.921,41.1C-19.926,40.267 -20.472,40.674 -20.872,41.021C-19.331,39.786 -13.681,33.693 -13.662,33.176L-13.643,33.19C-13.445,32.764 -13.962,33.294 -13.181,32.159L-12.595,31.449L-11.801,30.316C-11.22,29.591 -11.471,29.971 -11.461,29.978C-10.315,28.039 -8.524,25.435 -7.294,22.996C-7.762,23.841 -8.333,24.625 -8.923,25.395C-7.597,23.51 -5.88,19.712 -5.697,19.296L-5.026,18.081C-3.276,13.804 -3.987,15.026 -3.306,13.314C-3.005,12.601 -2.697,11.887 -2.502,11.138C-2.665,11.893 -2.94,12.613 -3.21,13.334C-2.326,11.193 -2.253,10.248 -1.673,8.493L-1.67,8.473C-1.706,8.595 -1.731,8.673 -1.741,8.688L-1.663,8.374C-1.651,8.088 -1.349,6.919 -0.988,5.332C-0.682,3.04 -0.296,1.265 0.107,-2.404L0.055,-3.332L0.254,-6.098L0.334,-6.096C0.345,-4.134 0.062,-0.962 -0.337,1.949C-0.199,1 -0.073,0.134 0.028,-0.508C0.2,-1.161 0.281,-2.873 0.3,-1.624L0.286,-2.912C0.63,-9.62 0.563,-9.906 0,-16.481" style="fill:rgb(0,61,126);fill-rule:nonzero;"/>
    </g>
    <g transform="matrix(-0.260949,1.79868,1.79868,0.260949,422.252,161.742)">
        <path d="M-0.669,-0.629C-0.289,-0.629 0.102,-0.628 0.501,-0.629C0.529,-0.629 0.551,-0.607 0.551,-0.579C0.551,-0.551 0.529,-0.529 0.501,-0.529C0.102,-0.528 -0.289,-0.529 -0.669,-0.529C-0.697,-0.529 -0.719,-0.551 -0.719,-0.579C-0.719,-0.607 -0.697,-0.629 -0.669,-0.629Z" style="fill:rgb(0,61,126);"/>
    </g>
    <g transform="matrix(1.81751,0,0,1.81751,421.902,126.913)">
        <path d="M0,-0.627C0.019,-0.409 0.035,-0.217 0.053,-0.012C0.054,-0.008 0.054,-0.004 0.055,0L0,-0.627Z" style="fill:rgb(0,61,126);fill-rule:nonzero;"/>
    </g>
    <g transform="matrix(1.81751,0,0,1.81751,420.505,162.492)">
        <path d="M0,2.131C0.106,1.437 0.213,0.711 0.316,0C0.207,0.723 0.093,1.426 -0.026,2.063L0,2.131Z" style="fill:rgb(0,61,126);fill-rule:nonzero;"/>
    </g>
    <g transform="matrix(1.81751,0,0,1.81751,335.221,257.403)">
        <path d="M0,0.063L0.096,0.039C0.079,0 -0.059,0.051 0,0.063" style="fill:rgb(0,61,126);fill-rule:nonzero;"/>
    </g>
    <g transform="matrix(1.81751,0,0,1.81751,408.876,197.919)">
        <path d="M0,0.245L-0.074,0.397L0.256,-0.152L0,0.245Z" style="fill:rgb(0,61,126);fill-rule:nonzero;"/>
    </g>
    <g transform="matrix(1.81751,0,0,1.81751,369.641,244.326)">
        <path d="M0,-0.664C-0.44,-0.317 -0.848,-0.044 -1.15,0.139C0.166,-0.68 0.17,-0.803 0,-0.664" style="fill:rgb(0,61,126);fill-rule:nonzero;"/>
    </g>
    <g transform="matrix(1.81751,0,0,1.81751,313.11,262.104)">
        <path d="M0,0.047C-0.792,0.164 -0.488,0.143 -0.02,0.1C0.788,-0.028 1.35,-0.117 1.35,-0.117L0,0.047Z" style="fill:rgb(0,61,126);fill-rule:nonzero;"/>
    </g>
    <g transform="matrix(1.81751,0,0,1.81751,319.145,262.411)">
        <path d="M0,-0.054L-0.244,0.018C0.225,-0.062 0.204,-0.072 0,-0.054" style="fill:rgb(0,61,126);fill-rule:nonzero;"/>
    </g>
    <g transform="matrix(1.81751,0,0,1.81751,263.289,130.356)">
        <path d="M0,-0.152L-0.03,-0.151L-0.09,0L0,-0.152Z" style="fill:rgb(0,61,126);fill-rule:nonzero;"/>
    </g>
    <g transform="matrix(1.81751,0,0,1.81751,254.516,129.472)">
        <path d="M0,-0.04L-0.029,-0.056C-0.027,-0.02 -0.033,0.016 0,-0.04" style="fill:rgb(0,61,126);fill-rule:nonzero;"/>
    </g>
    <g transform="matrix(1.81751,0,0,1.81751,286.755,74.7026)">
        <path d="M0,0.01L0.005,0.031L0.042,-0.021L0,0.01Z" style="fill:rgb(0,61,126);fill-rule:nonzero;"/>
    </g>
    <g transform="matrix(1.81751,0,0,1.81751,286.941,75.2644)">
        <path d="M0,-0.202C-0.044,-0.096 -0.085,-0.231 -0.098,-0.278C-0.179,-0.16 -0.185,-0.043 -0.148,0.076C-0.055,0.075 -0.069,-0.149 0,-0.202" style="fill:rgb(0,61,126);fill-rule:nonzero;"/>
    </g>
    <g transform="matrix(1.81751,0,0,1.81751,246.413,129.021)">
        <path d="M0,0.113L-0.024,0.001L-0.037,0L0,0.113Z" style="fill:rgb(0,61,126);fill-rule:nonzero;"/>
    </g>
    <g transform="matrix(1.81751,0,0,1.81751,205.582,124.894)">
        <path d="M0,0.104L0.09,0L-0.012,0.047L0,0.104Z" style="fill:rgb(0,61,126);fill-rule:nonzero;"/>
    </g>
    <g transform="matrix(-0.692017,1.68061,1.68061,0.692017,236.22,127.515)">
        <path d="M0.476,-0.355L0.531,-0.355C0.536,-0.239 0.441,0.021 0.302,0.344L0.127,0.296L0.476,-0.355Z" style="fill:rgb(0,61,126);fill-rule:nonzero;"/>
    </g>
    <g transform="matrix(1.81751,0,0,1.81751,204.512,48.4049)">
        <path d="M0,41.816C-0.667,41.723 -0.176,41.858 -0.044,41.974L0,41.888C0.4,41.972 0.4,42.189 0.6,42.249L0.588,42.189L0.563,42.218L0.577,42.131C0.572,42.085 0.59,42.049 0.699,42.062L0.678,42.085C0.846,42.053 1.134,42.087 1.26,42.102L1.262,42.283C1.559,41.939 3.255,42.809 3.654,42.82C4.054,43.049 4.55,42.764 5.049,42.879C5.845,42.937 5.447,43.142 5.847,43.298C6.346,43.412 5.746,43.087 5.946,43.075L6.544,43.327C6.196,43.349 6.385,43.458 6.448,43.528C6.965,43.559 7.78,43.891 7.939,43.529C8.637,43.703 8.638,43.847 8.938,43.865C8.837,43.799 8.638,43.739 8.637,43.667C8.916,43.826 8.77,43.627 8.656,43.591C9.082,43.435 10.867,44.25 10.957,43.854L10.957,43.926C11.055,43.63 10.896,43.344 11.194,43.181L11.393,43.313L11.691,43.186C11.892,43.281 11.793,43.36 11.793,43.397C12.28,43.26 12.959,43.423 13.55,43.462L12.925,42.657C13.422,42.843 14.32,43.221 14.419,42.962L14.718,43.232C15.716,43.749 15.415,43.007 15.813,43.163L16.314,43.458L15.815,43.453C16.314,43.602 16.514,43.699 16.912,43.891L16.916,43.883L16.867,43.839L16.937,43.832C16.997,43.685 17.257,43.584 17.608,43.593C18.107,43.635 18.498,43.418 19.294,43.73L19.493,43.428L20.091,43.608L20.091,43.848C19.505,43.834 18.402,43.925 17.649,43.937L17.636,44.046C18.083,44.046 18.59,43.94 18.886,43.964C19.029,44.012 19.397,44.261 19.13,44.423L19.406,44.189C20.897,44.162 20.907,44.15 22.463,44.422L22.328,44.301C22.636,44.231 22.944,44.162 23.03,44.357C23.964,44.396 24.932,44.547 25.538,44.851L25.671,44.568C25.868,44.584 26.164,45.011 26.26,44.616L26.682,44.491C26.951,44.513 27.116,44.351 27.423,44.513L27.425,44.514L27.483,44.547L27.479,44.524C28.09,44.649 27.474,44.271 28.172,44.433C28.396,44.634 28.42,44.075 28.761,44.139L29.103,44.544C29.72,44.777 29.825,44.37 30.719,44.369C31.148,44.513 31.356,44.859 31.072,45.167C31.462,44.795 31.25,44.924 31.768,44.746C31.848,44.899 31.792,44.931 31.678,45.068C32.139,45.248 31.962,44.93 32.309,44.939C32.41,44.651 32.526,44.193 32.639,44.174L32.505,44.085C32.873,43.931 33.274,43.859 33.702,44.004L33.686,44.148L34.141,44.075L34.169,44.26L34.819,44.203L34.729,44.153C34.882,44.128 35.383,44.065 35.669,44.161L35.659,44.264C36.467,44.585 37.133,44.165 38.08,44.13L37.955,44.34C38.277,44.549 38.043,44.018 38.428,44.122L38.447,44.38C38.785,44.041 38.884,44.452 39.117,44.58L39.008,44.242L39.447,44.314C39.93,44.425 39.744,44.74 39.673,44.918L40.002,44.651L40.066,44.949C40.307,44.602 40.307,45.005 40.728,44.819C40.763,44.932 40.656,44.997 40.799,45.045L41.495,44.624L41.075,44.81L41.126,44.374C41.563,44.043 41.718,44.422 42.029,44.3L41.815,44.43C42.324,44.324 42.351,44.509 42.638,44.606C42.549,44.525 42.413,44.404 42.619,44.347C42.77,44.323 42.701,44.501 42.844,44.549C42.861,44.403 42.96,44.293 43.097,44.235L43.325,44.191L43.355,44.191L43.363,44.192L43.369,44.192L43.538,44.024L45.264,42.297L45.265,42.28L45.274,42.217L45.313,42.092L45.42,42.125C45.373,42.041 45.298,41.997 45.368,41.85L45.691,41.937L45.384,41.654C45.472,41.465 45.238,41.19 45.456,41.215L45.521,41.322L45.599,39.893L45.856,39.873C45.501,39.732 45.992,39.095 45.548,39.142C45.79,38.872 45.377,38.081 45.877,38.239C45.916,37.3 45.435,36.793 45.678,35.652C46.103,35.246 45.965,34.132 46.01,33.399C45.833,31.968 45.673,31.043 45.537,29.579C46.129,28.699 45.333,27.384 45.667,26.437L45.432,26.177C45.807,25.548 45.348,24.587 45.714,23.703C45.611,23.487 45.578,23.374 45.57,23.323C45.559,23.363 45.514,23.424 45.364,23.443C45.47,23.191 45.338,22.681 45.637,22.717L45.667,22.781C45.966,22.818 45.527,22.016 45.786,21.734L45.466,21.889L45.521,21.411L45.582,21.539C44.872,19.464 45.887,18.526 45.238,16.578C45.587,16.836 45.055,16.193 45.436,16.168C45.916,15.677 45.333,15.257 45.205,14.855L45.135,14.827L45.18,14.122C45.663,14.543 44.78,13.615 45.19,14.002C45.551,12.165 45.184,9.768 45.35,7.642L45.226,7.735C45.25,7.196 45.099,6.525 45.297,6.116C45.495,5.707 44.982,5.221 44.963,5.063C44.749,4.614 45.174,4.207 45.152,4.399C45.093,3.92 44.652,3.468 44.841,2.803C45.25,2.576 44.44,0.988 44.901,0.968L44.862,0.961C45.187,0.108 44.635,-0.695 44.928,-1.613L44.993,-1.564L43.595,-3.432L42.057,-2.9L40.807,-1.281L41.078,3.106L40.589,6.608L40.754,15.129L41.102,15.738C40.495,17.413 41.193,19.56 40.76,21.364L41.059,21.401C41.076,21.91 40.891,21.875 40.839,22.001C40.905,26.732 41.303,31.602 40.926,35.859C40.729,36.269 40.845,37.518 40.636,37.839C40.809,38.49 40.894,39.159 40.938,39.83C40.679,39.793 40.426,39.754 40.19,39.726L40.243,39.693C34.989,39.639 30.111,40.197 24.9,39.78C22.477,39.293 19.658,39.965 16.879,39.559C16.368,39.262 10.745,39.485 10.248,39.625L10.899,39.988C8.807,40.155 7.831,39.792 6.039,40.084L6.138,40.005C5.877,39.921 5.73,40.736 2.85,39.741L2.85,39.705C2.75,39.711 2.75,39.783 2.551,39.687L3.049,39.909C2.75,40 2.49,40.174 2.092,40.198C2.008,40.158 1.979,40.084 1.97,40.025L0.995,40.086L0.696,39.852C0.398,39.979 0.534,40.474 -0.264,40.198C0.037,40.542 -0.66,40.404 -0.561,40.579L-0.767,40.414C-1.241,40.454 -2.134,40.55 -2.355,40.726C-2.355,40.726 -0.499,41.449 0,41.816" style="fill:rgb(0,61,126);fill-rule:nonzero;"/>
    </g>
    <g transform="matrix(1.81751,0,0,1.81751,208.093,120.921)">
        <path d="M0,0.127L0.022,0.126C0.021,0 -0.011,0.047 0,0.127" style="fill:rgb(0,61,126);fill-rule:nonzero;"/>
    </g>
    <g transform="matrix(1.81751,0,0,1.81751,229.205,127.715)">
        <path d="M0,-0.171L-0.036,-0.174L0.102,0.003L0,-0.171Z" style="fill:rgb(0,61,126);fill-rule:nonzero;"/>
    </g>
    <g transform="matrix(1.81751,0,0,1.81751,216.232,127.665)">
        <path d="M0,-0.081L-0.303,-0.039C0.032,0 0.047,-0.03 0,-0.081" style="fill:rgb(0,61,126);fill-rule:nonzero;"/>
    </g>
    <g transform="matrix(1.81751,0,0,1.81751,203.13,121.84)">
        <path d="M0,-0.139C-0.176,-0.149 -0.109,-0.074 -0.006,0.01C0.173,-0.006 0.298,-0.013 0.298,-0.013L0,-0.139Z" style="fill:rgb(0,61,126);fill-rule:nonzero;"/>
    </g>
    <g transform="matrix(1.81751,0,0,1.81751,204.432,124.878)">
        <path d="M0,-0.102L-0.055,0C0.049,-0.025 0.044,-0.062 0,-0.102" style="fill:rgb(0,61,126);fill-rule:nonzero;"/>
    </g>
    <g transform="matrix(1.81751,0,0,1.81751,336.493,153.098)">
        <path d="M0,0.152L0.029,0.151L0.09,0L0,0.152Z" style="fill:rgb(0,61,126);fill-rule:nonzero;"/>
    </g>
    <g transform="matrix(1.81751,0,0,1.81751,345.265,153.982)">
        <path d="M0,0.04L0.03,0.056C0.027,0.02 0.033,-0.016 0,0.04" style="fill:rgb(0,61,126);fill-rule:nonzero;"/>
    </g>
    <g transform="matrix(1.81751,0,0,1.81751,313.027,208.75)">
        <path d="M0,-0.009L-0.006,-0.03L-0.042,0.021L0,-0.009Z" style="fill:rgb(0,61,126);fill-rule:nonzero;"/>
    </g>
    <g transform="matrix(1.81751,0,0,1.81751,312.841,208.189)">
        <path d="M0,0.202C0.044,0.096 0.085,0.231 0.097,0.278C0.179,0.161 0.185,0.043 0.147,-0.076C0.055,-0.075 0.068,0.149 0,0.202" style="fill:rgb(0,61,126);fill-rule:nonzero;"/>
    </g>
    <g transform="matrix(1.81751,0,0,1.81751,353.369,154.433)">
        <path d="M0,-0.113L0.024,-0.001L0.037,0L0,-0.113Z" style="fill:rgb(0,61,126);fill-rule:nonzero;"/>
    </g>
    <g transform="matrix(1.81751,0,0,1.81751,394.201,158.561)">
        <path d="M0,-0.104L-0.09,0L0.012,-0.047L0,-0.104Z" style="fill:rgb(0,61,126);fill-rule:nonzero;"/>
    </g>
    <g transform="matrix(0.692017,-1.68061,-1.68061,-0.692017,364.117,154.767)">
        <path d="M-0.237,-0.318L-0.182,-0.318C-0.177,-0.202 -0.271,0.056 -0.411,0.38L-0.586,0.331L-0.237,-0.318Z" style="fill:rgb(0,61,126);fill-rule:nonzero;"/>
    </g>
    <g transform="matrix(1.81751,0,0,1.81751,320.837,235.924)">
        <path d="M0,-42.778C0.831,-43.609 0.584,-43.362 0,-42.778M40.953,-42.297C41.621,-42.204 41.13,-42.34 40.998,-42.455L40.953,-42.369C40.554,-42.453 40.554,-42.67 40.354,-42.73L40.365,-42.67L40.391,-42.699L40.377,-42.612C40.382,-42.566 40.363,-42.53 40.254,-42.543L40.275,-42.566C40.108,-42.534 39.819,-42.568 39.693,-42.583L39.691,-42.764C39.395,-42.42 37.698,-43.29 37.3,-43.301C36.9,-43.53 36.403,-43.245 35.904,-43.36C35.108,-43.418 35.506,-43.623 35.106,-43.779C34.607,-43.893 35.208,-43.569 35.008,-43.556L34.41,-43.808C34.757,-43.83 34.568,-43.939 34.505,-44.009C33.988,-44.04 33.173,-44.372 33.015,-44.01C32.316,-44.184 32.315,-44.328 32.017,-44.346C32.116,-44.28 32.315,-44.22 32.316,-44.148C32.037,-44.307 32.184,-44.108 32.298,-44.072C31.871,-43.916 30.087,-44.731 29.997,-44.335L29.997,-44.407C29.898,-44.111 30.057,-43.825 29.76,-43.662L29.561,-43.794L29.262,-43.667C29.062,-43.762 29.16,-43.841 29.16,-43.878C28.673,-43.741 27.994,-43.904 27.404,-43.944L28.028,-43.138C27.531,-43.324 26.633,-43.702 26.534,-43.443L26.235,-43.713C25.237,-44.23 25.538,-43.488 25.141,-43.644L24.639,-43.939L25.138,-43.934C24.639,-44.083 24.439,-44.18 24.042,-44.372L24.038,-44.364L24.086,-44.32L24.017,-44.313C23.956,-44.166 23.696,-44.065 23.345,-44.074C22.846,-44.116 22.456,-43.899 21.659,-44.211L21.461,-43.909L20.862,-44.089L20.862,-44.329C21.448,-44.315 22.551,-44.406 23.305,-44.418L23.317,-44.528C22.871,-44.527 22.363,-44.421 22.067,-44.445C21.924,-44.493 21.556,-44.742 21.823,-44.904L21.547,-44.67C20.057,-44.643 20.047,-44.631 18.49,-44.903L18.626,-44.782C18.317,-44.712 18.01,-44.643 17.924,-44.838C16.989,-44.877 16.021,-45.028 15.415,-45.332L15.282,-45.049C15.085,-45.065 14.789,-45.492 14.693,-45.097L14.271,-44.972C14.002,-44.994 13.837,-44.832 13.53,-44.994L13.528,-44.995L13.471,-45.028L13.474,-45.005C12.863,-45.13 13.479,-44.752 12.781,-44.914C12.557,-45.115 12.533,-44.556 12.192,-44.62L11.851,-45.025C11.233,-45.258 11.128,-44.851 10.234,-44.85C9.805,-44.994 9.598,-45.341 9.882,-45.648C9.491,-45.276 9.704,-45.405 9.186,-45.227C9.105,-45.38 9.161,-45.412 9.275,-45.549C8.814,-45.729 8.991,-45.411 8.644,-45.42C8.543,-45.132 8.427,-44.674 8.313,-44.655L8.448,-44.566C8.081,-44.412 7.679,-44.34 7.252,-44.485L7.268,-44.629L6.813,-44.556L6.784,-44.741L6.135,-44.684L6.224,-44.634C6.071,-44.609 5.57,-44.546 5.284,-44.642L5.294,-44.745C4.486,-45.066 3.82,-44.646 2.874,-44.611L2.998,-44.821C2.676,-45.03 2.909,-44.499 2.525,-44.603L2.506,-44.861C2.168,-44.522 2.069,-44.933 1.836,-45.061L1.945,-44.723L1.506,-44.795C1.022,-44.906 1.21,-45.221 1.28,-45.399L0.951,-45.132L0.887,-45.43C0.646,-45.083 0.646,-45.486 0.225,-45.3C0.19,-45.413 0.297,-45.478 0.153,-45.526L-0.541,-45.105L-0.122,-45.291L-0.173,-44.855C-0.609,-44.524 -0.765,-44.903 -1.076,-44.781L-0.861,-44.911C-1.37,-44.805 -1.397,-44.99 -1.685,-45.087C-1.596,-45.006 -1.46,-44.885 -1.666,-44.828C-1.816,-44.804 -1.747,-44.982 -1.891,-45.03C-1.907,-44.884 -2.008,-44.774 -2.145,-44.716L-2.372,-44.672L-2.402,-44.673L-2.41,-44.673L-2.414,-44.674L-2.416,-44.674L-2.585,-44.505C-2.883,-44.207 -3.407,-43.682 -4.311,-42.778L-4.312,-42.777L-4.313,-42.761L-4.322,-42.699L-4.359,-42.574L-4.468,-42.607C-4.421,-42.522 -4.346,-42.479 -4.416,-42.332L-4.738,-42.418L-4.431,-42.135C-4.52,-41.946 -4.285,-41.672 -4.503,-41.696L-4.568,-41.803L-4.646,-40.375L-4.904,-40.355C-4.549,-40.214 -5.039,-39.576 -4.596,-39.623C-4.837,-39.354 -4.424,-38.562 -4.925,-38.721C-4.963,-37.782 -4.482,-37.275 -4.726,-36.133C-5.15,-35.727 -5.013,-34.613 -5.058,-33.881C-4.88,-32.449 -4.721,-31.524 -4.584,-30.061C-5.177,-29.18 -4.38,-27.865 -4.715,-26.918L-4.479,-26.659C-4.854,-26.029 -4.396,-25.068 -4.762,-24.185C-4.658,-23.968 -4.626,-23.855 -4.617,-23.804C-4.605,-23.844 -4.562,-23.905 -4.412,-23.924C-4.517,-23.673 -4.386,-23.162 -4.684,-23.198L-4.715,-23.263C-5.014,-23.3 -4.575,-22.497 -4.834,-22.216L-4.514,-22.37L-4.568,-21.892L-4.629,-22.02C-3.919,-19.945 -4.934,-19.008 -4.285,-17.059C-4.635,-17.318 -4.102,-16.675 -4.483,-16.65C-4.963,-16.157 -4.38,-15.738 -4.252,-15.336L-4.182,-15.308L-4.228,-14.604C-4.71,-15.025 -3.828,-14.096 -4.238,-14.483C-4.599,-12.646 -4.231,-10.249 -4.397,-8.123L-4.273,-8.216C-4.297,-7.677 -4.146,-7.007 -4.345,-6.598C-4.543,-6.189 -4.03,-5.702 -4.01,-5.544C-3.797,-5.096 -4.222,-4.688 -4.199,-4.88C-4.141,-4.401 -3.699,-3.949 -3.889,-3.284C-4.298,-3.057 -3.487,-1.469 -3.948,-1.449L-3.909,-1.442C-4.234,-0.59 -3.682,0.214 -3.976,1.132L-4.04,1.083L-2.643,2.951L-1.104,2.419L0.146,0.801L-0.125,-3.587L0.363,-7.089L0.198,-15.611L-0.149,-16.219C0.458,-17.894 -0.24,-20.041 0.193,-21.845L-0.105,-21.882C-0.123,-22.391 0.062,-22.357 0.113,-22.482C0.048,-27.213 -0.351,-32.084 0.026,-36.34C0.224,-36.751 0.107,-37.999 0.316,-38.321C0.145,-38.972 0.059,-39.641 0.016,-40.311C0.273,-40.274 0.527,-40.236 0.763,-40.207L0.71,-40.174C5.965,-40.12 10.843,-40.678 16.054,-40.261C18.477,-39.774 21.295,-40.446 24.075,-40.04C24.585,-39.743 30.209,-39.966 30.706,-40.106L30.054,-40.469C32.146,-40.636 33.123,-40.273 34.914,-40.565L34.815,-40.486C35.076,-40.403 35.223,-41.217 38.104,-40.222L38.104,-40.186C38.204,-40.192 38.203,-40.264 38.402,-40.168L37.904,-40.39C38.203,-40.481 38.464,-40.655 38.861,-40.679C38.946,-40.639 38.975,-40.565 38.983,-40.507L39.959,-40.567L40.258,-40.333C40.556,-40.46 40.42,-40.955 41.218,-40.679C40.917,-41.023 41.613,-40.885 41.515,-41.06L41.72,-40.895C42.194,-40.935 43.088,-41.031 43.309,-41.207C43.309,-41.207 41.452,-41.93 40.953,-42.297" style="fill:rgb(0,61,126);fill-rule:nonzero;"/>
    </g>
    <g transform="matrix(1.81751,0,0,1.81751,316.445,154.199)">
        <path d="M0,0.292C0.15,0.142 0.292,0 0,0.292" style="fill:rgb(0,61,126);fill-rule:nonzero;"/>
    </g>
    <g transform="matrix(1.81751,0,0,1.81751,391.689,162.534)">
        <path d="M0,-0.127L-0.021,-0.126C-0.021,0 0.012,-0.047 0,-0.127" style="fill:rgb(0,61,126);fill-rule:nonzero;"/>
    </g>
    <g transform="matrix(1.81751,0,0,1.81751,370.577,155.74)">
        <path d="M0,0.171L0.037,0.174L-0.102,-0.003L0,0.171Z" style="fill:rgb(0,61,126);fill-rule:nonzero;"/>
    </g>
    <g transform="matrix(1.81751,0,0,1.81751,383.55,155.79)">
        <path d="M0,0.081L0.303,0.039C-0.031,0 -0.047,0.03 0,0.081" style="fill:rgb(0,61,126);fill-rule:nonzero;"/>
    </g>
    <g transform="matrix(1.81751,0,0,1.81751,396.654,161.615)">
        <path d="M0,0.139C0.175,0.149 0.108,0.074 0.005,-0.01C-0.174,0.006 -0.299,0.013 -0.299,0.013L0,0.139Z" style="fill:rgb(0,61,126);fill-rule:nonzero;"/>
    </g>
    <g transform="matrix(1.81751,0,0,1.81751,395.351,158.577)">
        <path d="M0,0.102L0.055,0C-0.049,0.025 -0.045,0.062 0,0.102" style="fill:rgb(0,61,126);fill-rule:nonzero;"/>
    </g>
    <g transform="matrix(1.81751,0,0,1.81751,287.796,178.044)">
        <path d="M0,-0.09L0.001,-0.061L0.152,0L0,-0.09Z" style="fill:rgb(0,61,126);fill-rule:nonzero;"/>
    </g>
    <g transform="matrix(1.81751,0,0,1.81751,287.115,186.712)">
        <path d="M0,-0.033L-0.016,-0.004C0.02,-0.006 0.056,0 0,-0.033" style="fill:rgb(0,61,126);fill-rule:nonzero;"/>
    </g>
    <g transform="matrix(1.81751,0,0,1.81751,232.436,154.339)">
        <path d="M0,0.042L0.021,0.037L-0.031,0L0,0.042Z" style="fill:rgb(0,61,126);fill-rule:nonzero;"/>
    </g>
    <g transform="matrix(1.81751,0,0,1.81751,232.613,154.565)">
        <path d="M0,-0.185C0.106,-0.141 -0.03,-0.1 -0.076,-0.087C0.042,-0.006 0.159,0 0.278,-0.037C0.277,-0.13 0.052,-0.116 0,-0.185" style="fill:rgb(0,61,126);fill-rule:nonzero;"/>
    </g>
    <g transform="matrix(1.81751,0,0,1.81751,286.942,194.822)">
        <path d="M0,-0.036L-0.112,-0.012L-0.113,0L0,-0.036Z" style="fill:rgb(0,61,126);fill-rule:nonzero;"/>
    </g>
    <g transform="matrix(1.81751,0,0,1.81751,282.798,235.445)">
        <path d="M0,0.078L-0.104,-0.012L-0.057,0.09L0,0.078Z" style="fill:rgb(0,61,126);fill-rule:nonzero;"/>
    </g>
    <g transform="matrix(1.68061,0.692017,0.692017,-1.68061,285.541,205.813)">
        <path d="M0.137,0.02L0.192,0.02C0.198,0.136 0.103,0.395 -0.037,0.719L-0.212,0.67L0.137,0.02Z" style="fill:rgb(0,61,126);fill-rule:nonzero;"/>
    </g>
    <g transform="matrix(1.81751,0,0,1.81751,288.211,213.569)">
        <path d="M0,-18.369C-0.372,-18.76 -0.242,-18.547 -0.421,-19.065C-0.268,-19.145 -0.236,-19.09 -0.098,-18.975C0.081,-19.436 -0.236,-19.26 -0.227,-19.607C-0.515,-19.707 -0.974,-19.824 -0.992,-19.937L-1.082,-19.802C-1.236,-20.17 -1.308,-20.572 -1.163,-20.999L-1.018,-20.983L-1.092,-21.438L-0.907,-21.467L-0.964,-22.116L-1.014,-22.027C-1.039,-22.18 -1.102,-22.681 -1.005,-22.967L-0.902,-22.956C-0.582,-23.765 -1.002,-24.431 -1.036,-25.377L-0.826,-25.252C-0.617,-25.575 -1.149,-25.341 -1.045,-25.725L-0.787,-25.744C-1.126,-26.082 -0.715,-26.182 -0.586,-26.414L-0.924,-26.306L-0.853,-26.744C-0.741,-27.227 -0.426,-27.041 -0.249,-26.97L-0.516,-27.299L-0.217,-27.364C-0.564,-27.604 -0.162,-27.604 -0.348,-28.025C-0.235,-28.06 -0.17,-27.953 -0.122,-28.097L-0.543,-28.792L-0.356,-28.372L-0.792,-28.424C-1.124,-28.86 -0.745,-29.015 -0.866,-29.327L-0.737,-29.112C-0.843,-29.621 -0.657,-29.648 -0.561,-29.935C-0.642,-29.846 -0.762,-29.71 -0.819,-29.916C-0.843,-30.067 -0.666,-29.998 -0.618,-30.141C-0.763,-30.158 -0.874,-30.258 -0.932,-30.394L-0.976,-30.622L-0.975,-30.653L-0.975,-30.661L-0.974,-30.664L-0.974,-30.665L-2.869,-32.56L-2.872,-32.56L-2.887,-32.562L-2.95,-32.571L-3.075,-32.609L-3.042,-32.717C-3.126,-32.67 -3.17,-32.595 -3.317,-32.665L-3.23,-32.988L-3.513,-32.681C-3.702,-32.769 -3.977,-32.535 -3.952,-32.752L-3.845,-32.817L-5.274,-32.895L-5.294,-33.153C-5.435,-32.798 -6.072,-33.288 -6.025,-32.845C-6.295,-33.086 -7.086,-32.674 -6.928,-33.174C-7.867,-33.213 -8.374,-32.731 -9.515,-32.975C-9.921,-33.4 -11.035,-33.262 -11.768,-33.307C-13.199,-33.129 -14.125,-32.97 -15.588,-32.833C-16.468,-33.426 -17.783,-32.629 -18.73,-32.964L-18.989,-32.729C-19.619,-33.103 -20.58,-32.645 -21.463,-33.011C-21.68,-32.908 -21.793,-32.875 -21.844,-32.867C-21.804,-32.855 -21.743,-32.81 -21.724,-32.661C-21.976,-32.766 -22.486,-32.635 -22.45,-32.933L-22.386,-32.964C-22.348,-33.263 -23.151,-32.824 -23.432,-33.083L-23.278,-32.763L-23.756,-32.817L-23.628,-32.879C-25.703,-32.168 -26.641,-33.183 -28.589,-32.535C-28.331,-32.884 -28.973,-32.351 -28.999,-32.733C-29.49,-33.213 -29.909,-32.629 -30.312,-32.501L-30.34,-32.432L-31.044,-32.477C-30.624,-32.959 -31.552,-32.077 -31.166,-32.487C-33.002,-32.848 -35.398,-32.481 -37.524,-32.647L-37.432,-32.523C-37.971,-32.547 -38.641,-32.396 -39.05,-32.594C-39.459,-32.792 -39.945,-32.279 -40.104,-32.26C-40.552,-32.046 -40.96,-32.471 -40.768,-32.449C-41.247,-32.39 -41.698,-31.949 -42.363,-32.138C-42.591,-32.547 -44.179,-31.737 -44.199,-32.198L-44.206,-32.159C-45.058,-32.483 -45.862,-31.932 -46.78,-32.225L-46.731,-32.29L-48.599,-30.891L-48.067,-29.353L-46.448,-28.104L-42.061,-28.375L-38.559,-27.886L-30.037,-28.051L-29.429,-28.399C-27.754,-27.792 -25.607,-28.49 -23.803,-28.057L-23.766,-28.355C-23.257,-28.373 -23.292,-28.188 -23.166,-28.136C-18.435,-28.202 -13.564,-28.6 -9.308,-28.223C-8.898,-28.026 -7.649,-28.142 -7.328,-27.933C-6.677,-28.105 -6.007,-28.191 -5.337,-28.234C-5.374,-27.976 -5.412,-27.723 -5.44,-27.488L-5.473,-27.54C-5.527,-22.286 -4.969,-17.409 -5.387,-12.197C-5.874,-9.774 -5.201,-6.955 -5.607,-4.176C-5.905,-3.666 -5.681,1.958 -5.542,2.455L-5.178,1.802C-5.012,3.895 -5.375,4.872 -5.083,6.664L-5.161,6.564C-5.245,6.825 -4.43,6.972 -5.426,9.852L-5.462,9.852C-5.456,9.953 -5.383,9.952 -5.48,10.151L-5.257,9.654C-5.167,9.952 -4.993,10.213 -4.968,10.61C-5.008,10.695 -5.083,10.723 -5.141,10.732L-5.081,11.708L-5.315,12.006C-5.188,12.304 -4.693,12.169 -4.969,12.966C-4.625,12.666 -4.763,13.362 -4.588,13.263L-4.752,13.468C-4.713,13.943 -4.616,14.837 -4.44,15.057C-4.44,15.057 -3.717,13.201 -3.351,12.702C-3.443,13.37 -3.308,12.879 -3.193,12.747L-3.278,12.702C-3.194,12.302 -2.978,12.302 -2.918,12.102L-2.978,12.114L-2.949,12.139L-3.035,12.126C-3.082,12.131 -3.118,12.112 -3.105,12.004L-3.083,12.024C-3.114,11.857 -3.08,11.568 -3.064,11.443L-2.883,11.44C-3.228,11.143 -2.357,9.447 -2.346,9.048C-2.118,8.649 -2.402,8.153 -2.288,7.653C-2.23,6.857 -2.024,7.256 -1.868,6.856C-1.754,6.356 -2.079,6.957 -2.091,6.756L-1.839,6.159C-1.818,6.506 -1.708,6.317 -1.639,6.254C-1.608,5.737 -1.276,4.922 -1.637,4.763C-1.464,4.066 -1.319,4.064 -1.301,3.765C-1.367,3.865 -1.427,4.064 -1.5,4.066C-1.341,3.787 -1.54,3.932 -1.575,4.047C-1.732,3.621 -0.917,1.836 -1.313,1.746L-1.241,1.746C-1.536,1.647 -1.823,1.806 -1.986,1.508L-1.854,1.31L-1.981,1.011C-1.885,0.81 -1.807,0.909 -1.77,0.909C-1.907,0.423 -1.744,-0.257 -1.704,-0.847L-2.509,-0.222C-2.324,-0.72 -1.946,-1.618 -2.205,-1.717L-1.935,-2.016C-1.418,-3.014 -2.159,-2.712 -2.003,-3.111L-1.708,-3.612L-1.714,-3.114C-1.564,-3.612 -1.468,-3.811 -1.276,-4.209L-1.284,-4.213L-1.328,-4.164L-1.335,-4.234C-1.482,-4.294 -1.583,-4.555 -1.573,-4.906C-1.531,-5.405 -1.749,-5.795 -1.437,-6.592L-1.738,-6.79L-1.559,-7.389L-1.319,-7.389C-1.333,-6.802 -1.242,-5.7 -1.229,-4.947L-1.12,-4.933C-1.121,-5.38 -1.227,-5.888 -1.203,-6.183C-1.155,-6.327 -0.905,-6.695 -0.743,-6.428L-0.978,-6.703C-1.005,-8.195 -1.017,-8.204 -0.745,-9.76L-0.866,-9.625C-0.936,-9.933 -1.005,-10.242 -0.81,-10.327C-0.771,-11.262 -0.619,-12.229 -0.315,-12.836L-0.598,-12.969C-0.583,-13.166 -0.155,-13.461 -0.551,-13.557L-0.676,-13.979C-0.654,-14.248 -0.815,-14.414 -0.653,-14.721L-0.652,-14.723L-0.619,-14.781L-0.643,-14.777C-0.518,-15.387 -0.896,-14.771 -0.733,-15.47C-0.532,-15.694 -1.092,-15.718 -1.028,-16.058L-0.623,-16.4C-0.39,-17.017 -0.796,-17.123 -0.798,-18.016C-0.653,-18.446 -0.307,-18.653 0,-18.369" style="fill:rgb(0,61,126);fill-rule:nonzero;"/>
    </g>
    <g transform="matrix(1.81751,0,0,1.81751,286.441,158.365)">
        <path d="M0,-0.292C0.292,0 0.15,-0.142 0,-0.292" style="fill:rgb(0,61,126);fill-rule:nonzero;"/>
    </g>
    <g transform="matrix(1.81751,0,0,1.81751,278.867,233.059)">
        <path d="M0,0.009L-0.001,-0.012C-0.127,-0.012 -0.08,0.021 0,0.009" style="fill:rgb(0,61,126);fill-rule:nonzero;"/>
    </g>
    <g transform="matrix(1.81751,0,0,1.81751,285.119,211.846)">
        <path d="M0,0.064L-0.003,0.101L0.174,-0.037L0,0.064Z" style="fill:rgb(0,61,126);fill-rule:nonzero;"/>
    </g>
    <g transform="matrix(1.81751,0,0,1.81751,285.233,225.4)">
        <path d="M0,-0.256L0.042,0.047C0.081,-0.287 0.05,-0.303 0,-0.256" style="fill:rgb(0,61,126);fill-rule:nonzero;"/>
    </g>
    <g transform="matrix(1.81751,0,0,1.81751,279.303,237.814)">
        <path d="M0,0.124C-0.01,0.299 0.065,0.232 0.149,0.129C0.133,-0.05 0.126,-0.175 0.126,-0.175L0,0.124Z" style="fill:rgb(0,61,126);fill-rule:nonzero;"/>
    </g>
    <g transform="matrix(1.81751,0,0,1.81751,282.408,236.748)">
        <path d="M0,-0.006L0.102,0.049C0.077,-0.055 0.04,-0.051 0,-0.006" style="fill:rgb(0,61,126);fill-rule:nonzero;"/>
    </g>
    <g transform="matrix(1.81751,0,0,1.81751,311.987,105.409)">
        <path d="M0,0.09L-0.001,0.061L-0.152,0L0,0.09Z" style="fill:rgb(0,61,126);fill-rule:nonzero;"/>
    </g>
    <g transform="matrix(1.81751,0,0,1.81751,312.669,96.7407)">
        <path d="M0,0.033L0.016,0.004C-0.021,0.006 -0.057,0 0,0.033" style="fill:rgb(0,61,126);fill-rule:nonzero;"/>
    </g>
    <g transform="matrix(1.81751,0,0,1.81751,367.345,129.116)">
        <path d="M0,-0.042L-0.021,-0.037L0.031,0L0,-0.042Z" style="fill:rgb(0,61,126);fill-rule:nonzero;"/>
    </g>
    <g transform="matrix(1.81751,0,0,1.81751,367.169,128.889)">
        <path d="M0,0.185C-0.106,0.141 0.029,0.1 0.076,0.087C-0.042,0.006 -0.159,0 -0.278,0.037C-0.278,0.13 -0.053,0.116 0,0.185" style="fill:rgb(0,61,126);fill-rule:nonzero;"/>
    </g>
    <g transform="matrix(1.81751,0,0,1.81751,312.841,88.6309)">
        <path d="M0,0.036L0.111,0.012L0.112,0L0,0.036Z" style="fill:rgb(0,61,126);fill-rule:nonzero;"/>
    </g>
    <g transform="matrix(1.81751,0,0,1.81751,316.983,48.0081)">
        <path d="M0,-0.078L0.104,0.012L0.058,-0.09L0,-0.078Z" style="fill:rgb(0,61,126);fill-rule:nonzero;"/>
    </g>
    <g transform="matrix(-1.68061,-0.692017,-0.692017,1.68061,313.688,78.8138)">
        <path d="M0.101,-0.693L0.156,-0.693C0.163,-0.578 0.067,-0.319 -0.073,0.005L-0.248,-0.043L0.101,-0.693Z" style="fill:rgb(0,61,126);fill-rule:nonzero;"/>
    </g>
    <g transform="matrix(1.81751,0,0,1.81751,311.571,69.8853)">
        <path d="M0,18.368C0.372,18.759 0.242,18.546 0.421,19.064C0.268,19.144 0.235,19.089 0.099,18.974C-0.081,19.435 0.236,19.259 0.228,19.606C0.516,19.706 0.974,19.823 0.992,19.936L1.082,19.801C1.236,20.169 1.308,20.571 1.163,20.998L1.019,20.982L1.092,21.437L0.906,21.466L0.964,22.115L1.014,22.026C1.038,22.179 1.103,22.68 1.005,22.966L0.902,22.955C0.582,23.764 1.002,24.43 1.036,25.376L0.826,25.251C0.617,25.574 1.149,25.34 1.045,25.724L0.787,25.743C1.126,26.081 0.715,26.181 0.587,26.413L0.925,26.305L0.854,26.743C0.741,27.226 0.427,27.04 0.249,26.969L0.516,27.298L0.217,27.363C0.564,27.603 0.161,27.603 0.348,28.024C0.234,28.059 0.17,27.952 0.122,28.096L0.543,28.791L0.356,28.371L0.792,28.423C1.123,28.859 0.745,29.014 0.866,29.326L0.737,29.111C0.843,29.62 0.657,29.647 0.561,29.934C0.642,29.845 0.762,29.709 0.819,29.915C0.844,30.066 0.666,29.997 0.618,30.14C0.763,30.157 0.874,30.257 0.932,30.393L0.976,30.621L0.975,30.652L0.975,30.665C1.161,30.852 1.17,30.861 1.116,30.807C1.409,31.1 1.941,31.632 2.869,32.56L2.871,32.56L2.887,32.562L2.948,32.571L3.073,32.609L3.041,32.717C3.125,32.67 3.169,32.595 3.316,32.665L3.229,32.988L3.513,32.681C3.701,32.769 3.977,32.535 3.951,32.752L3.844,32.817L5.273,32.895L5.293,33.153C5.435,32.798 6.071,33.288 6.024,32.845C6.294,33.086 7.086,32.674 6.927,33.174C7.865,33.213 8.373,32.731 9.514,32.975C9.92,33.4 11.034,33.262 11.767,33.307C13.198,33.129 14.123,32.97 15.587,32.833C16.467,33.426 17.782,32.629 18.729,32.964L18.988,32.729C19.618,33.103 20.579,32.645 21.463,33.011C21.679,32.908 21.793,32.875 21.843,32.867C21.803,32.855 21.742,32.81 21.723,32.661C21.975,32.766 22.485,32.635 22.448,32.933L22.385,32.964C22.348,33.263 23.149,32.824 23.432,33.083L23.277,32.763L23.755,32.817L23.627,32.879C25.702,32.168 26.64,33.183 28.588,32.535C28.33,32.884 28.973,32.351 28.998,32.733C29.489,33.213 29.908,32.629 30.312,32.501L30.339,32.431L31.044,32.477C30.623,32.959 31.551,32.077 31.164,32.487C33.001,32.848 35.397,32.481 37.523,32.647L37.431,32.523C37.97,32.547 38.641,32.396 39.05,32.594C39.459,32.792 39.944,32.279 40.103,32.26C40.552,32.046 40.959,32.471 40.767,32.449C41.246,32.389 41.697,31.949 42.362,32.138C42.59,32.547 44.178,31.737 44.197,32.198L44.205,32.159C45.057,32.483 45.861,31.931 46.778,32.225L46.73,32.29L48.598,30.891L48.065,29.353L46.447,28.104L42.06,28.375L38.558,27.886L30.036,28.051L29.428,28.399C27.753,27.792 25.605,28.49 23.802,28.056L23.765,28.355C23.256,28.373 23.291,28.188 23.165,28.136C18.434,28.202 13.563,28.6 9.308,28.223C8.896,28.026 7.648,28.142 7.326,27.933C6.676,28.105 6.007,28.191 5.337,28.234C5.374,27.975 5.412,27.722 5.44,27.487L5.473,27.539C5.527,22.285 4.97,17.408 5.387,12.196C5.874,9.773 5.201,6.955 5.607,4.175C5.904,3.665 5.682,-1.959 5.541,-2.456L5.179,-1.804C5.012,-3.897 5.375,-4.873 5.082,-6.664L5.161,-6.565C5.245,-6.826 4.431,-6.973 5.426,-9.854L5.462,-9.854C5.456,-9.954 5.383,-9.953 5.479,-10.153L5.258,-9.654C5.166,-9.953 4.993,-10.214 4.969,-10.611C5.009,-10.696 5.083,-10.725 5.141,-10.733L5.08,-11.708L5.314,-12.007C5.188,-12.305 4.693,-12.17 4.969,-12.967C4.625,-12.667 4.763,-13.363 4.588,-13.264L4.753,-13.47C4.713,-13.944 4.616,-14.837 4.44,-15.058C4.44,-15.058 3.717,-13.202 3.351,-12.703C3.443,-13.371 3.309,-12.88 3.193,-12.748L3.278,-12.703C3.194,-12.303 2.978,-12.303 2.918,-12.103L2.978,-12.115L2.949,-12.14L3.035,-12.127C3.082,-12.132 3.118,-12.113 3.105,-12.004L3.082,-12.025C3.113,-11.858 3.08,-11.57 3.064,-11.444L2.884,-11.441C3.229,-11.145 2.357,-9.448 2.346,-9.049C2.118,-8.65 2.402,-8.153 2.288,-7.654C2.229,-6.859 2.024,-7.256 1.868,-6.857C1.754,-6.358 2.079,-6.958 2.092,-6.757L1.84,-6.159C1.817,-6.507 1.709,-6.319 1.639,-6.255C1.607,-5.738 1.276,-4.923 1.637,-4.764C1.464,-4.067 1.319,-4.065 1.302,-3.766C1.367,-3.866 1.428,-4.065 1.5,-4.067C1.341,-3.787 1.539,-3.933 1.575,-4.048C1.731,-3.621 0.916,-1.837 1.313,-1.747L1.241,-1.747C1.536,-1.648 1.823,-1.807 1.986,-1.509L1.854,-1.311L1.981,-1.012C1.885,-0.812 1.807,-0.91 1.771,-0.91C1.906,-0.423 1.744,0.256 1.704,0.846L2.51,0.221C2.323,0.719 1.946,1.617 2.205,1.716L1.935,2.015C1.418,3.013 2.159,2.712 2.003,3.11L1.709,3.611L1.714,3.112C1.564,3.611 1.468,3.81 1.276,4.208L1.284,4.212L1.328,4.163L1.335,4.233C1.482,4.294 1.583,4.554 1.573,4.905C1.531,5.404 1.749,5.794 1.437,6.591L1.738,6.789L1.559,7.388L1.318,7.388C1.333,6.802 1.242,5.699 1.229,4.946L1.12,4.932C1.12,5.379 1.227,5.887 1.203,6.182C1.154,6.326 0.905,6.694 0.743,6.427L0.979,6.703C1.005,8.194 1.017,8.203 0.745,9.759L0.865,9.624C0.936,9.932 1.005,10.241 0.81,10.326C0.771,11.261 0.619,12.228 0.315,12.835L0.598,12.968C0.582,13.165 0.155,13.46 0.551,13.556L0.676,13.978C0.654,14.247 0.815,14.413 0.653,14.72L0.652,14.722L0.619,14.78L0.643,14.776C0.518,15.386 0.896,14.77 0.733,15.469C0.532,15.693 1.092,15.717 1.027,16.057L0.622,16.399C0.39,17.016 0.797,17.122 0.798,18.015C0.653,18.445 0.308,18.652 0,18.368" style="fill:rgb(0,61,126);fill-rule:nonzero;"/>
    </g>
    <g transform="matrix(1.81751,0,0,1.81751,313.077,125.878)">
        <path d="M0,-0.288C0.064,-0.223 0.223,-0.065 0.288,0C0.133,-0.156 0.041,-0.247 0,-0.288" style="fill:rgb(0,61,126);fill-rule:nonzero;"/>
    </g>
    <g transform="matrix(1.81751,0,0,1.81751,320.915,50.3959)">
        <path d="M0,-0.01L0.002,0.012C0.128,0.011 0.08,-0.022 0,-0.01" style="fill:rgb(0,61,126);fill-rule:nonzero;"/>
    </g>
    <g transform="matrix(1.81751,0,0,1.81751,314.663,71.6076)">
        <path d="M0,-0.065L0.003,-0.102L-0.175,0.037L0,-0.065Z" style="fill:rgb(0,61,126);fill-rule:nonzero;"/>
    </g>
    <g transform="matrix(1.81751,0,0,1.81751,314.55,58.0513)">
        <path d="M0,0.256L-0.041,-0.047C-0.081,0.288 -0.051,0.303 0,0.256" style="fill:rgb(0,61,126);fill-rule:nonzero;"/>
    </g>
    <g transform="matrix(1.81751,0,0,1.81751,320.48,45.6359)">
        <path d="M0,-0.122C0.01,-0.298 -0.065,-0.231 -0.148,-0.128C-0.134,0.051 -0.126,0.176 -0.126,0.176L0,-0.122Z" style="fill:rgb(0,61,126);fill-rule:nonzero;"/>
    </g>
    <g transform="matrix(1.81751,0,0,1.81751,317.376,46.7051)">
        <path d="M0,0.006L-0.103,-0.049C-0.077,0.055 -0.04,0.05 0,0.006" style="fill:rgb(0,61,126);fill-rule:nonzero;"/>
    </g>
    <g transform="matrix(1.81751,0,0,1.81751,10.0163,364.678)">
        <path d="M0,-21.671L0,-9.828L2.755,-9.828C6.785,-9.828 9.623,-10.568 9.623,-15.791C9.623,-20.644 6.785,-21.671 2.755,-21.671L0,-21.671ZM-5.511,-25.742L2.755,-25.742C9.334,-25.742 15.133,-24.016 15.133,-16.161L15.133,-15.421C15.133,-7.772 9.334,-5.757 2.755,-5.757L0,-5.757L0,4.071C0,4.071 -5.511,4.071 -5.511,1.398L-5.511,-25.742Z" style="fill:rgb(0,61,126);fill-rule:nonzero;"/>
    </g>
    <g transform="matrix(1.81751,0,0,1.81751,44.5979,336.8)">
        <path d="M0,16.614L0,-2.632C1.234,-2.015 2.262,-1.809 3.167,-1.809C4.976,-1.809 6.785,-2.673 9.211,-2.673C12.131,-2.673 14.763,-1.604 14.763,1.193C14.763,3.208 13.2,4.729 12.872,5.222C12.872,2.632 10.815,1.48 8.43,1.48C7.032,1.48 5.798,1.85 5.346,1.933L5.346,19.287C5.346,19.287 0,19.287 0,16.614" style="fill:rgb(0,61,126);fill-rule:nonzero;"/>
    </g>
    <g transform="matrix(1.81751,0,0,1.81751,102.398,357.953)">
        <path d="M0,-6.457C0,-8.965 -0.781,-10.404 -4.564,-10.404C-8.348,-10.404 -9.129,-8.965 -9.129,-6.457L-9.129,-0.001C-9.129,2.508 -8.348,3.947 -4.564,3.947C-0.781,3.947 0,2.508 0,-0.001L0,-6.457ZM5.346,0.616C5.346,5.14 2.18,7.854 -4.564,7.854C-11.309,7.854 -14.475,5.14 -14.475,0.616L-14.475,-7.073C-14.475,-11.597 -11.309,-14.311 -4.564,-14.311C2.18,-14.311 5.346,-11.597 5.346,-7.073L5.346,0.616Z" style="fill:rgb(0,61,126);fill-rule:nonzero;"/>
    </g>
    <g transform="matrix(1.81751,0,0,1.81751,151.695,358.251)">
        <path d="M0,-6.169C-0.987,3.413 -8.964,8.06 -9.047,8.101C-9.129,8.06 -17.148,3.413 -18.094,-6.169L-18.958,-14.27C-18.958,-14.27 -13.776,-14.27 -13.447,-11.679L-12.625,-5.429C-11.925,0.534 -9.047,2.673 -9.047,2.673C-9.047,2.673 -6.168,0.288 -5.469,-5.429L-4.647,-11.679C-4.359,-14.27 0.905,-14.27 0.905,-14.27L0,-6.169Z" style="fill:rgb(0,61,126);fill-rule:nonzero;"/>
    </g>
    <g transform="matrix(1.81751,0,0,1.81751,159.589,371.853)">
        <path d="M0,-29.361L3.619,-29.361C4.277,-29.361 5.14,-28.745 5.14,-28.169L5.14,-24.756L1.521,-24.756C0.658,-24.756 0,-25.373 0,-25.948L0,-29.361ZM-0.124,-21.754C0.206,-21.754 5.223,-21.713 5.223,-19.081L5.223,0C5.223,0 -0.124,0 -0.124,-2.673L-0.124,-21.754Z" style="fill:rgb(0,61,126);fill-rule:nonzero;"/>
    </g>
    <g transform="matrix(1.81751,0,0,1.81751,200.402,341.286)">
        <path d="M0,2.179C0,0.163 -2.221,-1.234 -4.441,-1.234C-6.415,-1.234 -7.854,-0.083 -7.854,2.59L-7.854,9.252C-7.854,11.843 -6.867,13.117 -3.454,13.117C-1.604,13.117 0,12.624 0,12.624L0,2.179ZM0,-14.804C0.37,-14.804 5.346,-14.845 5.346,-11.72L5.346,17.024C4.277,16.49 3.167,16.325 2.056,16.325C-0.123,16.325 -2.221,17.024 -3.948,17.024C-9.828,17.024 -13.2,14.433 -13.2,9.868L-13.2,1.973C-13.2,-2.468 -9.376,-5.141 -4.976,-5.141C-1.563,-5.141 0.329,-3.537 0.329,-3.537C0.329,-3.537 0,-4.894 0,-5.923L0,-14.804Z" style="fill:rgb(0,61,126);fill-rule:nonzero;"/>
    </g>
    <g transform="matrix(1.81751,0,0,1.81751,227.241,355.783)">
        <path d="M0,-4.071C0.412,-3.988 1.851,-3.701 3.084,-3.701C6.045,-3.701 7.073,-4.646 7.073,-6.291C7.073,-8.018 6.127,-9.211 3.578,-9.211C0.782,-9.211 0,-7.771 0,-5.263L0,-4.071ZM-5.346,1.81L-5.346,-5.88C-5.346,-10.403 -2.138,-13.118 3.742,-13.118C9.623,-13.118 12.419,-10.403 12.419,-6.291C12.419,-2.796 10.363,0.452 3.866,0.452C2.55,0.452 1.234,0.206 0,-0.288L0,1.193C0,3.66 1.48,4.935 4.565,4.935C8.636,4.935 11.391,3.208 11.432,0.741C12.296,1.974 12.707,3.084 12.707,4.113C12.707,7.074 9.294,9.047 4.565,9.047C-1.686,9.047 -5.346,6.333 -5.346,1.81" style="fill:rgb(0,61,126);fill-rule:nonzero;"/>
    </g>
    <g transform="matrix(1.81751,0,0,1.81751,281.062,358.401)">
        <path d="M0,-7.156C0,-9.336 -1.028,-10.569 -3.948,-10.569C-6.045,-10.569 -7.854,-9.994 -7.854,-9.994L-7.854,7.402C-7.854,7.402 -13.2,7.402 -13.2,4.729L-13.2,-14.558C-13.2,-14.558 -11.596,-13.694 -9.499,-13.694C-7.484,-13.694 -5.592,-14.558 -3.372,-14.558C0.864,-14.558 5.346,-13.119 5.346,-7.773L5.346,7.402C5.346,7.402 0,7.32 0,4.729L0,-7.156Z" style="fill:rgb(0,61,126);fill-rule:nonzero;"/>
    </g>
    <g transform="matrix(1.81751,0,0,1.81751,330.107,340.837)">
        <path d="M0,12.377C0,15.379 -3.454,17.271 -8.142,17.271C-13.981,17.271 -17.641,14.598 -17.641,10.033L-17.641,2.344C-17.641,-2.139 -14.228,-4.894 -8.348,-4.894C-5.14,-4.894 -0.534,-3.784 -0.534,-0.165C-0.534,0.945 -1.027,2.303 -2.138,3.906C-2.138,0.575 -4.811,-0.864 -7.401,-0.864C-10.362,-0.864 -12.336,-0.042 -12.336,3.412L-12.336,8.964C-12.336,11.925 -10.814,13.199 -7.525,13.199C-3.947,13.199 -1.315,11.432 -1.274,9.005C-0.411,10.28 0,11.391 0,12.377" style="fill:rgb(0,61,126);fill-rule:nonzero;"/>
    </g>
    <g transform="matrix(1.81751,0,0,1.81751,345.73,355.783)">
        <path d="M0,-4.071C0.411,-3.988 1.851,-3.701 3.084,-3.701C6.045,-3.701 7.073,-4.646 7.073,-6.291C7.073,-8.018 6.127,-9.211 3.577,-9.211C0.781,-9.211 0,-7.771 0,-5.263L0,-4.071ZM-5.347,1.81L-5.347,-5.88C-5.347,-10.403 -2.139,-13.118 3.742,-13.118C9.622,-13.118 12.419,-10.403 12.419,-6.291C12.419,-2.796 10.362,0.452 3.865,0.452C2.549,0.452 1.233,0.206 0,-0.288L0,1.193C0,3.66 1.48,4.935 4.564,4.935C8.636,4.935 11.391,3.208 11.432,0.741C12.295,1.974 12.706,3.084 12.706,4.113C12.706,7.074 9.293,9.047 4.564,9.047C-1.687,9.047 -5.347,6.333 -5.347,1.81" style="fill:rgb(0,61,126);fill-rule:nonzero;"/>
    </g>
    <g transform="matrix(1.81751,0,0,1.81751,382.256,353.915)">
        <path d="M0,-9.622L0,-0.041C0,5.306 3.66,7.032 8.307,7.032C12.542,7.032 17.847,5.717 17.847,2.016C21.301,8.431 13.94,10.075 8.307,10.075C2.262,10.075 -3.454,7.608 -3.454,0.576L-3.454,-10.198C-3.454,-17.229 2.262,-19.697 8.307,-19.697C13.94,-19.697 21.301,-18.053 17.847,-11.637C17.847,-14.927 12.542,-16.654 8.307,-16.654C3.66,-16.654 0,-14.968 0,-9.622" style="fill:rgb(0,61,126);fill-rule:nonzero;"/>
    </g>
    <g transform="matrix(1.81751,0,0,1.81751,431.165,315.349)">
        <path d="M0,31.089C0,31.089 -3.289,31.089 -3.289,29.032L-3.289,0.082C-3.043,0.082 0,0 0,2.55L0,8.266C0,11.063 -0.411,12.008 -0.411,12.008C-0.411,12.008 1.028,9.746 6.004,9.746C9.87,9.746 13.201,12.172 13.201,16.243L13.201,31.089C13.201,31.089 9.911,31.048 9.911,29.032L9.911,16.86C9.911,13.776 8.02,12.419 5.47,12.419C2.756,12.419 0,14.064 0,16.449L0,31.089Z" style="fill:rgb(0,61,126);fill-rule:nonzero;"/>
    </g>
    <g transform="matrix(1.81751,0,0,1.81751,470.284,345.769)">
        <path d="M0,7.772C0,10.322 1.316,11.802 4.977,11.802C7.979,11.802 9.911,10.939 9.911,10.939L9.911,-6.785C9.911,-6.785 13.201,-6.785 13.201,-4.729L13.201,14.352C12.255,13.858 11.351,13.694 10.527,13.694C8.554,13.694 6.744,14.557 4.4,14.557C0.658,14.557 -3.289,13.242 -3.289,8.389L-3.289,-6.785C-3.289,-6.785 0,-6.744 0,-4.729L0,7.772Z" style="fill:rgb(0,61,126);fill-rule:nonzero;"/>
    </g>
    <g transform="matrix(1.81751,0,0,1.81751,509.59,365.277)">
        <path d="M0,-14.105L0,3.619C0,3.619 -3.289,3.619 -3.289,1.562L-3.289,-17.518C-2.344,-17.025 -1.521,-16.861 -0.781,-16.861C0.946,-16.861 2.345,-17.724 4.606,-17.724C7.484,-17.724 9.459,-16.614 9.459,-14.393C9.459,-13.407 9.089,-12.542 8.308,-11.473C8.308,-13.735 6.333,-14.804 3.948,-14.804C1.769,-14.804 0,-14.105 0,-14.105" style="fill:rgb(0,61,126);fill-rule:nonzero;"/>
    </g>
    <g transform="matrix(1.81751,0,0,1.81751,547.884,333.063)">
        <path d="M0,21.548C-5.223,21.548 -8.471,19.081 -8.471,14.928L-8.471,6.621C-8.471,2.468 -5.223,0 0,0C4.812,0 9.294,2.468 6.004,7.237C6.004,4.36 3.208,2.879 0.247,2.879C-3.577,2.879 -5.182,4.36 -5.182,7.237L-5.182,14.311C-5.182,17.19 -3.577,18.67 0.247,18.67C3.824,18.67 6.826,17.19 6.826,14.311C10.116,19.081 5.223,21.548 0,21.548" style="fill:rgb(0,61,126);fill-rule:nonzero;"/>
    </g>
    <g transform="matrix(1.81751,0,0,1.81751,576.007,315.349)">
        <path d="M0,31.089C0,31.089 -3.289,31.089 -3.289,29.032L-3.289,0.082C-3.043,0.082 0,0 0,2.55L0,8.266C0,11.063 -0.411,12.008 -0.411,12.008C-0.411,12.008 1.028,9.746 6.004,9.746C9.87,9.746 13.201,12.172 13.201,16.243L13.201,31.089C13.201,31.089 9.911,31.048 9.911,29.032L9.911,16.86C9.911,13.776 8.02,12.419 5.47,12.419C2.756,12.419 0,14.064 0,16.449L0,31.089Z" style="fill:rgb(0,61,126);fill-rule:nonzero;"/>
    </g>
</svg>
